FILE "South Coast Shaman's Tales from the Golden Age of the Solar Clipper, Book 1.m4b" MP4
TRACK 1 AUDIO
  TITLE "Chapter 01"
  INDEX 01 0:0:00
TRACK 2 AUDIO
  TITLE "Chapter 02"
  INDEX 01 0:18:99
TRACK 3 AUDIO
  TITLE "Chapter 03"
  INDEX 01 5:43:95
TRACK 4 AUDIO
  TITLE "Chapter 04"
  INDEX 01 12:5:43
TRACK 5 AUDIO
  TITLE "Chapter 05"
  INDEX 01 25:21:34
TRACK 6 AUDIO
  TITLE "Chapter 06"
  INDEX 01 35:26:83
TRACK 7 AUDIO
  TITLE "Chapter 07"
  INDEX 01 44:58:55
TRACK 8 AUDIO
  TITLE "Chapter 08"
  INDEX 01 57:10:70
TRACK 9 AUDIO
  TITLE "Chapter 09"
  INDEX 01 67:19:41
TRACK 10 AUDIO
  TITLE "Chapter 10"
  INDEX 01 78:25:80
TRACK 11 AUDIO
  TITLE "Chapter 11"
  INDEX 01 87:32:88
TRACK 12 AUDIO
  TITLE "Chapter 12"
  INDEX 01 95:57:10
TRACK 13 AUDIO
  TITLE "Chapter 13"
  INDEX 01 111:47:17
TRACK 14 AUDIO
  TITLE "Chapter 14"
  INDEX 01 119:59:74
TRACK 15 AUDIO
  TITLE "Chapter 15"
  INDEX 01 133:9:77
TRACK 16 AUDIO
  TITLE "Chapter 16"
  INDEX 01 144:14:03
TRACK 17 AUDIO
  TITLE "Chapter 17"
  INDEX 01 155:50:88
TRACK 18 AUDIO
  TITLE "Chapter 18"
  INDEX 01 164:50:86
TRACK 19 AUDIO
  TITLE "Chapter 19"
  INDEX 01 174:27:53
TRACK 20 AUDIO
  TITLE "Chapter 20"
  INDEX 01 182:37:33
TRACK 21 AUDIO
  TITLE "Chapter 21"
  INDEX 01 191:21:33
TRACK 22 AUDIO
  TITLE "Chapter 22"
  INDEX 01 199:28:35
TRACK 23 AUDIO
  TITLE "Chapter 23"
  INDEX 01 213:39:69
TRACK 24 AUDIO
  TITLE "Chapter 24"
  INDEX 01 229:16:01
TRACK 25 AUDIO
  TITLE "Chapter 25"
  INDEX 01 238:14:73
TRACK 26 AUDIO
  TITLE "Chapter 26"
  INDEX 01 251:1:62
TRACK 27 AUDIO
  TITLE "Chapter 27"
  INDEX 01 259:57:21
TRACK 28 AUDIO
  TITLE "Chapter 28"
  INDEX 01 267:46:09
TRACK 29 AUDIO
  TITLE "Chapter 29"
  INDEX 01 276:52:48
TRACK 30 AUDIO
  TITLE "Chapter 30"
  INDEX 01 289:25:39
TRACK 31 AUDIO
  TITLE "Chapter 31"
  INDEX 01 297:58:01
TRACK 32 AUDIO
  TITLE "Chapter 32"
  INDEX 01 310:30:15
TRACK 33 AUDIO
  TITLE "Chapter 33"
  INDEX 01 318:9:03
TRACK 34 AUDIO
  TITLE "Chapter 34"
  INDEX 01 326:11:72
TRACK 35 AUDIO
  TITLE "Chapter 35"
  INDEX 01 334:39:43
TRACK 36 AUDIO
  TITLE "Chapter 36"
  INDEX 01 348:58:38
TRACK 37 AUDIO
  TITLE "Chapter 37"
  INDEX 01 357:28:73
TRACK 38 AUDIO
  TITLE "Chapter 38"
  INDEX 01 367:41:27
TRACK 39 AUDIO
  TITLE "Chapter 39"
  INDEX 01 376:44:78
TRACK 40 AUDIO
  TITLE "Chapter 40"
  INDEX 01 387:2:95
TRACK 41 AUDIO
  TITLE "Chapter 41"
  INDEX 01 398:19:67
TRACK 42 AUDIO
  TITLE "Chapter 42"
  INDEX 01 405:55:87
TRACK 43 AUDIO
  TITLE "Chapter 43"
  INDEX 01 415:31:79
TRACK 44 AUDIO
  TITLE "Chapter 44"
  INDEX 01 423:13:08
TRACK 45 AUDIO
  TITLE "Chapter 45"
  INDEX 01 432:39:51
TRACK 46 AUDIO
  TITLE "Chapter 46"
  INDEX 01 439:15:20
TRACK 47 AUDIO
  TITLE "Chapter 47"
  INDEX 01 446:23:17
TRACK 48 AUDIO
  TITLE "Chapter 48"
  INDEX 01 468:13:61
TRACK 49 AUDIO
  TITLE "Chapter 49"
  INDEX 01 473:5:83
TRACK 50 AUDIO
  TITLE "Chapter 50"
  INDEX 01 474:4:51
TRACK 51 AUDIO
  TITLE "Chapter 51"
  INDEX 01 501:9:88
